<mxfile host="app.diagrams.net" modified="2023-02-22T08:07:48.240Z" agent="5.0 (Windows NT 10.0; Win64; x64) AppleWebKit/537.36 (KHTML, like Gecko) Chrome/110.0.0.0 Safari/537.36 Edg/110.0.1587.50" etag="nWNlygwdVnskDv_XeeB6" version="20.8.20" type="github">
  <diagram name="第 1 页" id="nWb5dET8S9Bkfj8i0xzv">
    <mxGraphModel dx="3695" dy="1576" grid="1" gridSize="10" guides="1" tooltips="1" connect="1" arrows="1" fold="1" page="1" pageScale="1" pageWidth="827" pageHeight="1169" math="0" shadow="0">
      <root>
        <mxCell id="0" />
        <mxCell id="1" parent="0" />
        <mxCell id="rLm_3yrIv_aUEa_EWCQV-1" value="" style="rounded=0;whiteSpace=wrap;html=1;strokeWidth=4;" vertex="1" parent="1">
          <mxGeometry x="-270" y="220" width="500" height="20" as="geometry" />
        </mxCell>
        <mxCell id="rLm_3yrIv_aUEa_EWCQV-22" value="" style="group" vertex="1" connectable="0" parent="1">
          <mxGeometry x="-555" y="790" width="255" height="262.5" as="geometry" />
        </mxCell>
        <mxCell id="rLm_3yrIv_aUEa_EWCQV-2" value="" style="ellipse;whiteSpace=wrap;html=1;aspect=fixed;fillColor=#000000;" vertex="1" parent="rLm_3yrIv_aUEa_EWCQV-22">
          <mxGeometry x="102.5" y="110" width="50" height="50" as="geometry" />
        </mxCell>
        <mxCell id="rLm_3yrIv_aUEa_EWCQV-13" value="" style="verticalLabelPosition=bottom;verticalAlign=top;html=1;shape=mxgraph.basic.arc;startAngle=0.03371340126470076;endAngle=0.15089886605038338;strokeWidth=12;fillColor=#000000;" vertex="1" parent="rLm_3yrIv_aUEa_EWCQV-22">
          <mxGeometry x="42.5" y="50" width="170" height="170" as="geometry" />
        </mxCell>
        <mxCell id="rLm_3yrIv_aUEa_EWCQV-17" value="" style="rounded=0;whiteSpace=wrap;html=1;strokeWidth=4;fillColor=#000000;" vertex="1" parent="rLm_3yrIv_aUEa_EWCQV-22">
          <mxGeometry x="122.5" width="10" height="100" as="geometry" />
        </mxCell>
        <mxCell id="rLm_3yrIv_aUEa_EWCQV-18" value="" style="verticalLabelPosition=bottom;verticalAlign=top;html=1;shape=mxgraph.basic.arc;startAngle=0.022137806650892666;endAngle=0.16041673843282328;strokeWidth=12;fillColor=#000000;" vertex="1" parent="rLm_3yrIv_aUEa_EWCQV-22">
          <mxGeometry y="7.5" width="255" height="255" as="geometry" />
        </mxCell>
        <mxCell id="rLm_3yrIv_aUEa_EWCQV-19" value="" style="rounded=0;whiteSpace=wrap;html=1;strokeWidth=4;fillColor=#000000;rotation=65;" vertex="1" parent="rLm_3yrIv_aUEa_EWCQV-22">
          <mxGeometry x="199.5" y="51" width="10" height="100" as="geometry" />
        </mxCell>
        <mxCell id="rLm_3yrIv_aUEa_EWCQV-46" value="Tx" style="text;html=1;strokeColor=none;fillColor=none;align=center;verticalAlign=middle;whiteSpace=wrap;rounded=0;fontSize=40;fontFamily=Times New Roman;" vertex="1" parent="rLm_3yrIv_aUEa_EWCQV-22">
          <mxGeometry x="97.5" y="190" width="60" height="30" as="geometry" />
        </mxCell>
        <mxCell id="rLm_3yrIv_aUEa_EWCQV-23" value="" style="group;rotation=-60;" vertex="1" connectable="0" parent="1">
          <mxGeometry x="254" y="790" width="255" height="262.5" as="geometry" />
        </mxCell>
        <mxCell id="rLm_3yrIv_aUEa_EWCQV-24" value="" style="ellipse;whiteSpace=wrap;html=1;aspect=fixed;fillColor=#000000;rotation=-1505;" vertex="1" parent="rLm_3yrIv_aUEa_EWCQV-23">
          <mxGeometry x="106" y="109" width="50" height="50" as="geometry" />
        </mxCell>
        <mxCell id="rLm_3yrIv_aUEa_EWCQV-25" value="" style="verticalLabelPosition=bottom;verticalAlign=top;html=1;shape=mxgraph.basic.arc;startAngle=0.03371340126470076;endAngle=0.15089886605038338;strokeWidth=12;fillColor=#000000;rotation=-1505;" vertex="1" parent="rLm_3yrIv_aUEa_EWCQV-23">
          <mxGeometry x="46" y="49" width="170" height="170" as="geometry" />
        </mxCell>
        <mxCell id="rLm_3yrIv_aUEa_EWCQV-26" value="" style="rounded=0;whiteSpace=wrap;html=1;strokeWidth=4;fillColor=#000000;rotation=-1505;" vertex="1" parent="rLm_3yrIv_aUEa_EWCQV-23">
          <mxGeometry x="50" y="48" width="10" height="100" as="geometry" />
        </mxCell>
        <mxCell id="rLm_3yrIv_aUEa_EWCQV-27" value="" style="verticalLabelPosition=bottom;verticalAlign=top;html=1;shape=mxgraph.basic.arc;startAngle=0.022137806650892666;endAngle=0.16041673843282328;strokeWidth=12;fillColor=#000000;rotation=-1505;" vertex="1" parent="rLm_3yrIv_aUEa_EWCQV-23">
          <mxGeometry x="4" y="6" width="255" height="255" as="geometry" />
        </mxCell>
        <mxCell id="rLm_3yrIv_aUEa_EWCQV-28" value="" style="rounded=0;whiteSpace=wrap;html=1;strokeWidth=4;fillColor=#000000;rotation=-1440;" vertex="1" parent="rLm_3yrIv_aUEa_EWCQV-23">
          <mxGeometry x="128" width="10" height="100" as="geometry" />
        </mxCell>
        <mxCell id="rLm_3yrIv_aUEa_EWCQV-47" value="Rx" style="text;html=1;strokeColor=none;fillColor=none;align=center;verticalAlign=middle;whiteSpace=wrap;rounded=0;fontSize=40;fontFamily=Times New Roman;" vertex="1" parent="rLm_3yrIv_aUEa_EWCQV-23">
          <mxGeometry x="103" y="190" width="60" height="30" as="geometry" />
        </mxCell>
        <mxCell id="rLm_3yrIv_aUEa_EWCQV-35" value="" style="endArrow=none;dashed=1;html=1;strokeWidth=3;rounded=0;curved=1;startArrow=none;" edge="1" parent="1" source="rLm_3yrIv_aUEa_EWCQV-31">
          <mxGeometry width="50" height="50" relative="1" as="geometry">
            <mxPoint x="-360" y="920" as="sourcePoint" />
            <mxPoint x="320" y="920" as="targetPoint" />
          </mxGeometry>
        </mxCell>
        <mxCell id="rLm_3yrIv_aUEa_EWCQV-36" value="2m" style="text;html=1;strokeColor=none;fillColor=none;align=center;verticalAlign=middle;whiteSpace=wrap;rounded=0;fontSize=40;fontFamily=Times New Roman;" vertex="1" parent="1">
          <mxGeometry x="-50" y="970" width="60" height="30" as="geometry" />
        </mxCell>
        <mxCell id="rLm_3yrIv_aUEa_EWCQV-38" value="" style="endArrow=none;dashed=1;html=1;strokeWidth=3;rounded=0;curved=1;" edge="1" parent="1" target="rLm_3yrIv_aUEa_EWCQV-31">
          <mxGeometry width="50" height="50" relative="1" as="geometry">
            <mxPoint x="-360" y="920" as="sourcePoint" />
            <mxPoint x="320" y="920" as="targetPoint" />
          </mxGeometry>
        </mxCell>
        <mxCell id="rLm_3yrIv_aUEa_EWCQV-31" value="" style="shape=cross;whiteSpace=wrap;html=1;strokeWidth=4;fillColor=#FF0000;rotation=45;strokeColor=#FF0000;" vertex="1" parent="1">
          <mxGeometry x="-60" y="881.25" width="80" height="80" as="geometry" />
        </mxCell>
        <mxCell id="rLm_3yrIv_aUEa_EWCQV-40" value="" style="endArrow=none;dashed=1;html=1;rounded=0;strokeWidth=3;fontFamily=Times New Roman;fontSize=40;curved=1;entryX=0.5;entryY=1;entryDx=0;entryDy=0;" edge="1" parent="1" target="rLm_3yrIv_aUEa_EWCQV-1">
          <mxGeometry width="50" height="50" relative="1" as="geometry">
            <mxPoint x="-360" y="800" as="sourcePoint" />
            <mxPoint x="-40" y="280" as="targetPoint" />
          </mxGeometry>
        </mxCell>
        <mxCell id="rLm_3yrIv_aUEa_EWCQV-41" value="" style="endArrow=none;dashed=1;html=1;rounded=0;strokeWidth=3;fontFamily=Times New Roman;fontSize=40;curved=1;entryX=0.5;entryY=1;entryDx=0;entryDy=0;" edge="1" parent="1" target="rLm_3yrIv_aUEa_EWCQV-1">
          <mxGeometry width="50" height="50" relative="1" as="geometry">
            <mxPoint x="320" y="800" as="sourcePoint" />
            <mxPoint x="120" y="540" as="targetPoint" />
          </mxGeometry>
        </mxCell>
        <mxCell id="rLm_3yrIv_aUEa_EWCQV-42" value="2m" style="text;html=1;strokeColor=none;fillColor=none;align=center;verticalAlign=middle;whiteSpace=wrap;rounded=0;fontSize=40;fontFamily=Times New Roman;" vertex="1" parent="1">
          <mxGeometry x="-300" y="530" width="60" height="30" as="geometry" />
        </mxCell>
        <mxCell id="rLm_3yrIv_aUEa_EWCQV-43" value="2m" style="text;html=1;strokeColor=none;fillColor=none;align=center;verticalAlign=middle;whiteSpace=wrap;rounded=0;fontSize=40;fontFamily=Times New Roman;" vertex="1" parent="1">
          <mxGeometry x="200" y="530" width="60" height="30" as="geometry" />
        </mxCell>
        <mxCell id="rLm_3yrIv_aUEa_EWCQV-45" value="IRS" style="text;html=1;strokeColor=none;fillColor=none;align=center;verticalAlign=middle;whiteSpace=wrap;rounded=0;fontSize=40;fontFamily=Times New Roman;" vertex="1" parent="1">
          <mxGeometry x="-50" y="170" width="60" height="30" as="geometry" />
        </mxCell>
      </root>
    </mxGraphModel>
  </diagram>
</mxfile>
